<?xml version="1.0" encoding="UTF-8" standalone="no"?>
<!-- Created with Inkscape (http://www.inkscape.org/) -->
<svg id="svg2983" xmlns:rdf="http://www.w3.org/1999/02/22-rdf-syntax-ns#" xmlns="http://www.w3.org/2000/svg" height="200" width="200" version="1.1" xmlns:cc="http://creativecommons.org/ns#" xmlns:dc="http://purl.org/dc/elements/1.1/">
 <metadata id="metadata2988">
  <rdf:RDF>
   <cc:Work rdf:about="">
    <dc:format>image/svg+xml</dc:format>
    <dc:type rdf:resource="http://purl.org/dc/dcmitype/StillImage"/>
    <dc:title/>
   </cc:Work>
  </rdf:RDF>
 </metadata>
 <g id="layer1" transform="translate(0,-852.36218)">
  <path id="circle" d="m187.5,106.25c0,49.213-39.895,89.107-89.107,89.107-49.213,0-89.107-39.895-89.107-89.107,0-49.213,39.895-89.107,89.107-89.107,49.213,0,89.107,39.895,89.107,89.107z" transform="matrix(1.0773547,0,0,1.0773547,-6.0040154,837.89323)" stroke="#000" stroke-dasharray="none" stroke-miterlimit="4" stroke-width="2.78459824" fill="none"/>
  <path id="horse" d="m42.807,901.07c-5.3984,2.755-6.0335,3.4968-6.0335,6.4638-0.10585,1.9074-0.95265,7.4174-2.0112,12.398-1.3761,6.5697-1.5878,9.6426-0.8468,11.444,1.2702,2.755,4.7633,3.9206,8.6797,2.967,2.117-0.52981,2.6463-1.3775,2.6463-4.2385,0-2.755,0.8468-4.1326,4.1282-6.7816,4.5516-3.6027,4.7633-3.4968,7.9388,2.755,2.3287,4.5564,1.5878,7.7353-3.8106,16.636-4.234,7.2055-4.6574,9.8546-2.4346,15.577,0.4234,1.1656,0.2117,2.0133-0.6351,2.3312-0.8468,0.21193-5.0808,1.4835-9.4207,2.861-9.3148,2.7551-9.3148,2.7551-10.585,7.2055-0.8468,3.0729-0.6351,3.8147,2.6463,7.2055,1.9053,2.1193,4.6574,5.828,6.0335,8.3711,1.4819,2.861,3.5989,5.0862,5.5042,5.9339,1.7995,0.74175,4.7633,2.755,6.7744,4.4505,3.4931,3.0729,3.7048,3.0729,5.0808,1.1656,1.5878-2.1193,1.0585-5.828-1.0585-7.0995-0.6351-0.42386-2.2229-0.84771-3.5989-0.84771-1.2702,0-2.6463-0.63577-2.9638-1.4835-0.31755-0.84771-1.9053-2.0133-3.5989-2.6491-1.6936-0.52982-4.3399-2.967-5.9276-5.4041-2.7521-4.1326-2.858-4.6624-1.3761-7.2055,1.4819-2.755,1.9053-2.861,14.184-3.3908,7.6212-0.31789,13.655-1.1656,15.137-1.9074,1.3761-0.8477,2.7521-1.2716,2.9638-0.95366,0.52925,0.52981-3.1755,10.49-5.9276,15.683-1.1644,2.1192-2.858,7.4174-3.8106,11.656-2.3287,10.279-4.8691,15.153-8.7856,16.742-5.6101,2.3311-4.7633,5.404,1.4819,5.404,1.3761,0,3.9165-1.1656,5.6101-2.6489,2.4346-2.0134,3.1755-3.7089,3.5989-7.7354,0.31755-2.755,2.0112-8.0533,3.8106-11.656,1.9053-3.7087,3.3872-7.2055,3.3872-8.0532,0-0.74173,2.6463-4.7683,5.9276-8.9009l5.8218-7.6293h7.1978c3.9165,0,9.3148-0.74174,12.067-1.6954,4.1282-1.3775,5.2925-1.4835,7.8329-0.21193,1.5877,0.74174,3.3872,2.3312,4.0223,3.4968,0.52926,1.1656,2.4346,3.9206,4.0223,6.0399,2.5404,3.2849,2.9638,4.5564,2.3287,7.4174-1.2702,5.9339-10.797,17.484-18.735,22.676-8.3622,5.4041-9.3148,7.8412-2.9638,7.8412,3.5989,0,4.4457-0.4237,5.5042-2.7551,0.74095-1.4833,2.5404-3.3906,4.1282-4.2384,1.5878-0.7418,5.0808-4.6624,7.6212-8.5831,2.6462-4.0266,6.9861-9.3247,9.6324-11.974,2.9638-2.861,4.8691-5.616,4.8691-7.0995s0.6351-2.4371,1.5877-2.4371c1.9053,0,5.0808,5.9339,4.0223,7.7353-2.858,4.6624-13.972,17.272-16.513,18.65-5.1867,2.861-8.3622,5.616-7.4095,6.4638,0.42339,0.5297,2.7521,1.0596,5.0808,1.2715,3.7048,0.3179,4.234,0,4.5516-2.1193,0.21171-1.5895,1.5878-2.967,3.5989-3.9206,1.7995-0.7418,4.0223-2.7551,4.975-4.5564,0.95265-1.8015,4.975-6.5698,8.8914-10.702,7.9388-8.3711,7.9388-8.0532,1.6936-16.106-1.6936-2.1193-3.0696-4.5564-3.0696-5.2982,0-0.8477,3.3872-4.5564,7.5154-8.3711,7.092-6.4638,7.6212-7.2055,8.0446-12.186,0.42338-3.9206-0.2117-7.2055-2.2229-12.716-1.4819-4.0266-2.5404-7.5234-2.3287-7.6294,0.84681-0.95369,9.3148-0.42386,12.067,0.63577,3.7048,1.5894,5.2925,4.5564,6.1393,12.186,0.6351,5.1922,0.31755,6.5697-3.9165,15.577-5.8218,12.61-6.7744,21.405-3.0697,29.034,1.2702,2.6491,2.6462,4.7684,3.0697,4.7684,0.4234,0,0.52925-3.1789,0.31754-7.2055-0.4234-6.9936-0.31754-7.2055,4.7633-15.047,2.858-4.3445,7.5154-12.186,10.267-17.378l5.1-9.69-1.376-9.9605c-0.84682-6.1459-2.117-10.914-3.1755-12.398-1.0585-1.2716-4.5516-3.1789-7.9388-4.2385l-5.9276-1.9074-6.0335,4.2385c-8.6797,6.1459-12.49,7.2055-19.265,5.1922-7.4095-2.2252-11.008-2.1193-18.524,0.42387-7.3037,2.5431-16.724,3.7087-21.699,2.755-4.234-0.84769-9.6324-4.8743-7.5154-5.616,1.6936-0.63578-8.2563-12.186-13.972-16.424-4.975-3.6028-9.209-4.7683-19.688-5.2982-7.1978-0.42386-8.5739-0.21192-14.078,2.5431z" fill="#000"/>
 </g>
</svg>
