/* XPM */
static char *pixmap[] = {
/* width height ncols cpp */
"32 32 32 2",
  /* Colors */
  "00 c #000000",
  "01 c #181818",
  "02 c #181C18",
  "03 c #212421",
  "04 c #292829",
  "05 c #313431",
  "06 c #424142",
  "07 c #424542",
  "08 c #4A4D4A",
  "09 c #525552",
  "0A c #5A5D5A",
  "0B c #636563",
  "0C c #6B696B",
  "0D c #737173",
  "0E c #7B797B",
  "0F c #848284",
  "10 c #8C8E8C",
  "11 c #949294",
  "12 c #9C9A9C",
  "13 c #A5A2A5",
  "14 c #ADAAAD",
  "15 c #B5B2B5",
  "16 c #BDBABD",
  "17 c #C6C3C6",
  "18 c #CECBCE",
  "19 c #D6D3D6",
  "1A c #DEDFDE",
  "1B c #E7E3E7",
  "1C c #EFEBEF",
  "1D c #F7F3F7",
  "1E c #FFFBFF",
  ".. s None c None",
  "........................110B070707070B11........................",
  "..................120A0E15181B1B1C1A18150E0B12..................",
  "..............1308141E1E1E1E1E1E1E1E1E1E1E1E140813..............",
  "............0C0F1C1E1E1E1E1E1E1E1E1E1E1E1E1E1E1C0F0C............",
  "..........09161E1E1E1E1E1E1E1E1E1E1E1E1E1E1E1E1E1E1709..........",
  "........09151E1E1E1E1E1E1E1E1E1E1E1E1E1E1E1E1E1E1E1E150A........",
  "......0B16180B070B0C121B1E1E1E1E1E1E1E1E1E1E1E1E1E1E1E170B......",
  "....130F18070101010102081A1E1E1E1E1E1E1E1E1E1E1E1E1E1E1E0F13....",
  "....081B140301020101020107191E1E1E1E1E1E1E1E1E1E1E1E1A1B1B08....",
  "..12131E1002010201010101020A1D1E1E1E1E1E1E1E1E1E1D130709141212..",
  "..0A1E1E0A02091505020101020313191A19140D070911130902020204170A..",
  "..0E1E1E0802161E0C0201010101030707050302020102071310040202140E..",
  "11151E1E17101C1E0B0202010102010101010101010101031C1E1203020F1511",
  "0A181E1E1E1E1E1B03020101010101010102010102010102141E1604020D180A",
  "071A1E1E1E1E1D0B020101010101010201010101010101020D1E180504141A07",
  "071B1E1E1E1E190701010101010101010101010101010202111E13030B1C1C07",
  "071B1E1E1E1E1A08020201010201010202010101010202081C1D0702181E1B07",
  "071A1E1E1A120A0402020202020202020202020201010A1A1E17020B1E1E1A07",
  "0A181E18040B0C0C0D1009020A0C0C11170E020202071D1E1E0D081A1E1E180B",
  "11151E17091B1E1E1E1D05091D1E1E1E1E1C05020203151E1D0B131E1E1E1511",
  "..0E1E1E14171E1E1E16081A1E1E1E1E1E1E16040C0B07191E0C1B1E1E1E0E..",
  "..0A1E1E1C0E141E1C0B131E1E1E1E1E1E1E1607190F0A1B1E141A1E1E1E0A..",
  "..12131E1E180C0714091B1E1E1E1E1E1E1D0E18140B1C1E1E1E1D1E1E1312..",
  "....081B1E1E1C0F0B111E1E1E1E1E1E1E12151A0B181E1E1E1E1E1E1C08....",
  "....130F1E1E1E1E0E171E1E1E1E1E1D110D160B141E1E1E1E1E1E1E0F13....",
  "......0B171E1E1708191E1E1E1E1B0D080A07141E1E1E1E1E1E1E170B......",
  "........09141C16181E1E1E1E1E1B1617181B1E1E1E1E1E1E1E1509........",
  "..........09171E1E1E1E1E1E1E1E1E1E1E1E1E1E1E1E1E1E1709..........",
  "............0B0E1C1E1E1E1E1E1E1E1E1E1E1E1E1E1E1B0F0B............",
  "..............1308141E1E1E1E1E1E1E1E1E1E1E1E140813..............",
  "..................12090E15181A1B1B1A18150E0912..................",
  "........................110A070706070A11........................",
};
